<svg class="icon icon-no-entry" viewBox="0 0 416.979 416.979">
	<path d="M356.004,61.156c-81.37-81.47-213.377-81.551-294.848-0.182c-81.47,81.371-81.552,213.379-0.181,294.85
		c81.369,81.47,213.378,81.551,294.849,0.181C437.293,274.636,437.375,142.626,356.004,61.156z M332.156,235.874
		c-0.003,6.466-5.246,11.702-11.711,11.697l-223.96-0.138c-6.465-0.003-11.702-5.248-11.697-11.711l0.034-54.618
		c0.003-6.466,5.245-11.701,11.71-11.698l223.962,0.14c6.465,0.003,11.701,5.247,11.697,11.711L332.156,235.874z"/>
</svg>
